<svg width="12" height="12" viewBox="0 0 12 12" fill="none" xmlns="http://www.w3.org/2000/svg">
<path fill-rule="evenodd" clip-rule="evenodd" d="M4.48477 6.1066L0.646191 2.26802C0.255667 1.8775 0.255668 1.24433 0.646192 0.853808L0.747207 0.752793C1.13773 0.362269 1.7709 0.362269 2.16142 0.752793L6 4.59137L9.83858 0.752793C10.2291 0.362268 10.8623 0.362269 11.2528 0.752793L11.3538 0.853808C11.7443 1.24433 11.7443 1.8775 11.3538 2.26802L7.51523 6.1066L11.3538 9.94518C11.7443 10.3357 11.7443 10.9689 11.3538 11.3594L11.2528 11.4604C10.8623 11.8509 10.2291 11.8509 9.83858 11.4604L6 7.62183L2.16142 11.4604C1.7709 11.8509 1.13773 11.8509 0.747207 11.4604L0.646191 11.3594C0.255667 10.9689 0.255668 10.3357 0.646192 9.94518L4.48477 6.1066Z" fill="#131315"/>
</svg>
