<svg width="10" height="13" viewBox="0 0 10 13" fill="none" xmlns="http://www.w3.org/2000/svg">
<path fill-rule="evenodd" clip-rule="evenodd" d="M0.695703 4.1C0.695703 3.76863 0.964332 3.5 1.2957 3.5C1.62707 3.5 1.8957 3.76863 1.8957 4.1V11.3H7.8957V4.1C7.8957 3.76863 8.16433 3.5 8.4957 3.5C8.82707 3.5 9.0957 3.76863 9.0957 4.1V11.7C9.0957 12.1418 8.73753 12.5 8.2957 12.5H1.4957C1.05388 12.5 0.695703 12.1418 0.695703 11.7V4.1Z" fill="#F15356"/>
<path d="M3.2957 0.5C2.85388 0.5 2.4957 0.858172 2.4957 1.3V1.7H0.695703C0.364332 1.7 0.0957031 1.96863 0.0957031 2.3C0.0957031 2.63137 0.364332 2.9 0.695703 2.9H9.0957C9.42707 2.9 9.6957 2.63137 9.6957 2.3C9.6957 1.96863 9.42707 1.7 9.0957 1.7H7.2957V1.3C7.2957 0.858172 6.93753 0.5 6.4957 0.5H3.2957Z" fill="#F15356"/>
</svg>
