<svg width="18" height="13" viewBox="0 0 18 13" fill="none" xmlns="http://www.w3.org/2000/svg">
<path fill-rule="evenodd" clip-rule="evenodd" d="M2.6867 3.34295C4.17024 1.97663 6.32924 0.5 8.79519 0.5C11.2611 0.5 13.4201 1.97663 14.9037 3.34295C15.6574 4.03709 16.2652 4.72915 16.6846 5.24716C16.8948 5.50668 17.0586 5.72384 17.1709 5.8775C17.2271 5.95436 17.2704 6.01544 17.3003 6.05809C17.3152 6.07943 17.3267 6.09616 17.3348 6.10797L17.3443 6.12196L17.3471 6.12611L17.3481 6.12746L17.5982 6.5L17.3484 6.87205L17.3471 6.87389L17.3443 6.87804L17.3348 6.89203C17.3267 6.90384 17.3152 6.92057 17.3003 6.94191C17.2704 6.98456 17.2271 7.04564 17.1709 7.1225C17.0586 7.27616 16.8948 7.49332 16.6846 7.75284C16.2652 8.27085 15.6574 8.96291 14.9037 9.65705C13.4201 11.0234 11.2611 12.5 8.79519 12.5C6.32924 12.5 4.17024 11.0234 2.6867 9.65705C1.93302 8.96291 1.32515 8.27085 0.905738 7.75284C0.695621 7.49332 0.531743 7.27616 0.419456 7.1225C0.363288 7.04564 0.319957 6.98456 0.290131 6.94191C0.275216 6.92057 0.263672 6.90384 0.255581 6.89203L0.246045 6.87804L0.243237 6.87389L0.242327 6.87254L0 6.51173L0.243237 6.12611L0.246045 6.12196L0.255581 6.10797C0.263672 6.09616 0.275216 6.07943 0.290131 6.05809C0.319957 6.01544 0.363288 5.95436 0.419456 5.8775C0.531743 5.72384 0.695621 5.50668 0.905738 5.24716C1.32515 4.72915 1.93302 4.03709 2.6867 3.34295ZM1.61802 6.5C1.70605 6.61655 1.81455 6.75641 1.942 6.91383C2.33224 7.39581 2.89593 8.03709 3.58997 8.67629C5.00186 9.97663 6.84286 11.1667 8.79519 11.1667C10.7475 11.1667 12.5885 9.97663 14.0004 8.67629C14.6944 8.03709 15.2581 7.39581 15.6484 6.91383C15.7758 6.75641 15.8843 6.61655 15.9724 6.5C15.8843 6.38345 15.7758 6.24359 15.6484 6.08617C15.2581 5.60419 14.6944 4.96291 14.0004 4.32371C12.5885 3.02337 10.7475 1.83333 8.79519 1.83333C6.84286 1.83333 5.00186 3.02337 3.58997 4.32371C2.89593 4.96291 2.33224 5.60419 1.942 6.08617C1.81455 6.24359 1.70605 6.38345 1.61802 6.5Z" fill="#131315"/>
<path fill-rule="evenodd" clip-rule="evenodd" d="M8.79514 8.5C9.89971 8.5 10.7951 7.60457 10.7951 6.5C10.7951 5.39543 9.89971 4.5 8.79514 4.5C7.69057 4.5 6.79514 5.39543 6.79514 6.5C6.79514 7.60457 7.69057 8.5 8.79514 8.5ZM8.79514 9.83333C10.6361 9.83333 12.1285 8.34095 12.1285 6.5C12.1285 4.65905 10.6361 3.16667 8.79514 3.16667C6.95419 3.16667 5.46181 4.65905 5.46181 6.5C5.46181 8.34095 6.95419 9.83333 8.79514 9.83333Z" fill="#131315"/>
</svg>
