<svg width="20" height="20" viewBox="0 0 20 20" fill="none" xmlns="http://www.w3.org/2000/svg">
<path d="M10 0.5C15.525 0.5 20 4.975 20 10.5C19.9995 12.5953 19.3419 14.6376 18.1198 16.3395C16.8977 18.0415 15.1727 19.3173 13.1875 19.9875C12.6875 20.0875 12.5 19.775 12.5 19.5125C12.5 19.175 12.5125 18.1 12.5125 16.7625C12.5125 15.825 12.2 15.225 11.8375 14.9125C14.0625 14.6625 16.4 13.8125 16.4 9.975C16.4 8.875 16.0125 7.9875 15.375 7.2875C15.475 7.0375 15.825 6.0125 15.275 4.6375C15.275 4.6375 14.4375 4.3625 12.525 5.6625C11.725 5.4375 10.875 5.325 10.025 5.325C9.175 5.325 8.325 5.4375 7.525 5.6625C5.6125 4.375 4.775 4.6375 4.775 4.6375C4.225 6.0125 4.575 7.0375 4.675 7.2875C4.0375 7.9875 3.65 8.8875 3.65 9.975C3.65 13.8 5.975 14.6625 8.2 14.9125C7.9125 15.1625 7.65 15.6 7.5625 16.25C6.9875 16.5125 5.55 16.9375 4.65 15.425C4.4625 15.125 3.9 14.3875 3.1125 14.4C2.275 14.4125 2.775 14.875 3.125 15.0625C3.55 15.3 4.0375 16.1875 4.15 16.475C4.35 17.0375 5 18.1125 7.5125 17.65C7.5125 18.4875 7.525 19.275 7.525 19.5125C7.525 19.775 7.3375 20.075 6.8375 19.9875C4.8458 19.3245 3.11342 18.0513 1.88611 16.3483C0.658808 14.6453 -0.0011006 12.5991 1.37789e-06 10.5C1.37789e-06 4.975 4.475 0.5 10 0.5Z" fill="#131315"/>
</svg>
