<svg width="19" height="18" viewBox="0 0 19 18" fill="none" xmlns="http://www.w3.org/2000/svg">
<path fill-rule="evenodd" clip-rule="evenodd" d="M9.31641 4.5C6.83112 4.5 4.81641 6.51472 4.81641 9C4.81641 11.4853 6.83112 13.5 9.31641 13.5C11.8017 13.5 13.8164 11.4853 13.8164 9C13.8164 6.51472 11.8017 4.5 9.31641 4.5ZM3.31641 9C3.31641 5.68629 6.0027 3 9.31641 3C12.6301 3 15.3164 5.68629 15.3164 9C15.3164 12.3137 12.6301 15 9.31641 15C6.0027 15 3.31641 12.3137 3.31641 9Z" fill="#131315"/>
<path fill-rule="evenodd" clip-rule="evenodd" d="M9.31641 0C9.73062 0 10.0664 0.335786 10.0664 0.75V1.5C10.0664 1.91421 9.73062 2.25 9.31641 2.25C8.90219 2.25 8.56641 1.91421 8.56641 1.5V0.75C8.56641 0.335786 8.90219 0 9.31641 0Z" fill="#131315"/>
<path fill-rule="evenodd" clip-rule="evenodd" d="M18.3164 9C18.3164 9.41421 17.9806 9.75 17.5664 9.75H16.8164C16.4022 9.75 16.0664 9.41421 16.0664 9C16.0664 8.58579 16.4022 8.25 16.8164 8.25H17.5664C17.9806 8.25 18.3164 8.58579 18.3164 9Z" fill="#131315"/>
<path fill-rule="evenodd" clip-rule="evenodd" d="M15.6805 2.63604C15.9734 2.92894 15.9734 3.40381 15.6805 3.6967L15.1501 4.22703C14.8573 4.51993 14.3824 4.51993 14.0895 4.22703C13.7966 3.93414 13.7966 3.45927 14.0895 3.16637L14.6198 2.63604C14.9127 2.34315 15.3876 2.34315 15.6805 2.63604Z" fill="#131315"/>
<path fill-rule="evenodd" clip-rule="evenodd" d="M15.6804 15.3641C15.3875 15.657 14.9126 15.657 14.6197 15.3641L14.0894 14.8337C13.7965 14.5408 13.7965 14.066 14.0894 13.7731C14.3823 13.4802 14.8571 13.4802 15.15 13.7731L15.6804 14.3034C15.9733 14.5963 15.9733 15.0712 15.6804 15.3641Z" fill="#131315"/>
<path fill-rule="evenodd" clip-rule="evenodd" d="M9.31641 15.75C9.73062 15.75 10.0664 16.0858 10.0664 16.5V17.25C10.0664 17.6642 9.73062 18 9.31641 18C8.90219 18 8.56641 17.6642 8.56641 17.25V16.5C8.56641 16.0858 8.90219 15.75 9.31641 15.75Z" fill="#131315"/>
<path fill-rule="evenodd" clip-rule="evenodd" d="M2.56641 9C2.56641 9.41421 2.23062 9.75 1.81641 9.75H1.06641C0.652193 9.75 0.316406 9.41421 0.316406 9C0.316406 8.58579 0.652193 8.25 1.06641 8.25H1.81641C2.23062 8.25 2.56641 8.58579 2.56641 9Z" fill="#131315"/>
<path fill-rule="evenodd" clip-rule="evenodd" d="M4.54351 13.773C4.83641 14.0659 4.83641 14.5408 4.54351 14.8337L4.01318 15.364C3.72029 15.6569 3.24542 15.6569 2.95252 15.364C2.65963 15.0711 2.65963 14.5962 2.95252 14.3033L3.48285 13.773C3.77575 13.4801 4.25062 13.4801 4.54351 13.773Z" fill="#131315"/>
<path fill-rule="evenodd" clip-rule="evenodd" d="M4.5434 4.22711C4.25051 4.52 3.77563 4.52 3.48274 4.22711L2.95241 3.69678C2.65952 3.40388 2.65952 2.92901 2.95241 2.63612C3.2453 2.34322 3.72018 2.34322 4.01307 2.63612L4.5434 3.16645C4.83629 3.45934 4.83629 3.93421 4.5434 4.22711Z" fill="#131315"/>
</svg>
