<svg width="11" height="15" viewBox="0 0 11 15" fill="none" xmlns="http://www.w3.org/2000/svg">
<path d="M0.0630664 1.1762C0.0630664 0.903917 0.174097 0.643405 0.370516 0.454833L0.554051 0.278631C0.740281 0.0998406 0.98844 0 1.2466 0H9.81647C10.0746 0 10.3228 0.0998405 10.509 0.27863L10.6926 0.454833C10.889 0.643405 11 0.903917 11 1.1762V13.8238C11 14.0961 10.889 14.3566 10.6926 14.5452L10.509 14.7214C10.3228 14.9002 10.0746 15 9.81646 15H1.2466C0.98844 15 0.740281 14.9002 0.554051 14.7214L0.370516 14.5452C0.174097 14.3566 0.0630664 14.0961 0.0630664 13.8238V12.7812C0.0630664 12.3498 0.412826 12 0.844276 12V12C1.27573 12 1.62549 12.3498 1.62549 12.7812V13.5H9.43758V8.25L2.99074 8.25L4.20712 9.41779C4.52078 9.71891 4.52078 10.2205 4.20713 10.5217V10.5217C3.91105 10.8059 3.44343 10.8059 3.14735 10.5217L0.751387 8.22143C0.341454 7.82787 0.341455 7.17224 0.751387 6.77869L3.14735 4.47845C3.44343 4.1942 3.91105 4.1942 4.20713 4.47845V4.47845C4.52078 4.77957 4.52078 5.28121 4.20713 5.58233L2.99086 6.75L9.43758 6.75V1.5H1.62549V2.21879C1.62549 2.65024 1.27573 3 0.844276 3V3C0.412826 3 0.0630664 2.65024 0.0630664 2.21879V1.1762Z" fill="#131315"/>
</svg>
