<svg width="11" height="12" viewBox="0 0 11 12" fill="none" xmlns="http://www.w3.org/2000/svg">
<path fill-rule="evenodd" clip-rule="evenodd" d="M4.71429 6.78571H0.785715C0.351777 6.78571 0 6.43394 0 6C0 5.56606 0.351776 5.21429 0.785715 5.21429H4.71429V1.28572C4.71429 0.851777 5.06606 0.5 5.5 0.5C5.93394 0.5 6.28571 0.851776 6.28571 1.28571V5.21429H10.2143C10.6482 5.21429 11 5.56606 11 6C11 6.43394 10.6482 6.78571 10.2143 6.78571H6.28571V10.7143C6.28571 11.1482 5.93394 11.5 5.5 11.5C5.06606 11.5 4.71429 11.1482 4.71429 10.7143V6.78571Z" fill="white"/>
</svg>
