<svg width="20" height="21" viewBox="0 0 20 21" fill="none" xmlns="http://www.w3.org/2000/svg">
<path fill-rule="evenodd" clip-rule="evenodd" d="M2.92969 3.42891C4.80312 1.55422 7.34844 0.5 10 0.5C12.6516 0.5 15.1969 1.55422 17.0703 3.42891C18.9453 5.30359 20 7.84891 20 10.5C20 13.1511 18.9453 15.6964 17.0703 17.5711C15.1969 19.4458 12.6516 20.5 10 20.5C7.34844 20.5 4.80312 19.4458 2.92969 17.5711C1.05469 15.6964 0 13.1511 0 10.5C0.000519484 7.84778 1.05432 5.30434 2.92969 3.42891ZM10.3577 7.88217C9.38583 8.2867 7.44208 9.12404 4.52645 10.394C4.05302 10.5823 3.80458 10.7665 3.7827 10.9465C3.74423 11.2506 4.12504 11.3705 4.64249 11.5335C4.71347 11.5559 4.78701 11.579 4.86239 11.6036C5.37333 11.7695 6.06083 11.9637 6.41708 11.9714C6.74208 11.9784 7.10302 11.8448 7.50145 11.5708C10.2265 9.73217 11.6311 8.80279 11.7202 8.78279C11.7827 8.76873 11.8686 8.75092 11.9265 8.80295C11.9858 8.85483 11.9796 8.95326 11.9733 8.97967C11.9365 9.14027 10.4462 10.5258 9.67072 11.2468C9.42692 11.4735 9.25377 11.6345 9.21864 11.6711C9.14015 11.7526 9.06014 11.8297 8.98324 11.9039C8.50906 12.361 8.15331 12.7039 9.00302 13.2637C9.41501 13.5351 9.74387 13.7591 10.0725 13.983C10.4257 14.2235 10.7786 14.4639 11.2343 14.7628C11.3514 14.8396 11.4633 14.9193 11.5723 14.997C11.9864 15.2922 12.3585 15.5574 12.8186 15.5151C13.0858 15.4906 13.3624 15.2394 13.5015 14.49C13.8327 12.7189 14.4843 8.8817 14.6343 7.30045C14.6483 7.16201 14.6311 6.98467 14.6186 6.90686C14.6046 6.82897 14.5765 6.71803 14.4765 6.636C14.3561 6.53873 14.1718 6.51826 14.089 6.51959C13.7124 6.52639 13.1358 6.72701 10.3577 7.88217Z" fill="url(#paint0_linear_89_626)"/>
<path d="M4.52645 10.394C7.44208 9.12404 9.38583 8.2867 10.3577 7.88217C13.1358 6.72701 13.7124 6.52639 14.089 6.51959C14.1718 6.51826 14.3561 6.53873 14.4765 6.636C14.5765 6.71803 14.6046 6.82897 14.6186 6.90686C14.6311 6.98467 14.6483 7.16201 14.6343 7.30045C14.4843 8.8817 13.8327 12.7189 13.5015 14.49C13.3624 15.2394 13.0858 15.4906 12.8186 15.5151C12.3585 15.5574 11.9864 15.2922 11.5723 14.997C11.4633 14.9193 11.3514 14.8396 11.2343 14.7628C10.7786 14.4639 10.4257 14.2235 10.0725 13.983C9.74387 13.7591 9.41501 13.5351 9.00302 13.2637C8.15331 12.7039 8.50906 12.361 8.98324 11.9039C9.06014 11.8297 9.14015 11.7526 9.21864 11.6711C9.25377 11.6345 9.42692 11.4735 9.67072 11.2468C10.4462 10.5258 11.9365 9.14027 11.9733 8.97967C11.9796 8.95326 11.9858 8.85483 11.9265 8.80295C11.8686 8.75092 11.7827 8.76873 11.7202 8.78279C11.6311 8.80279 10.2265 9.73217 7.50145 11.5708C7.10302 11.8448 6.74208 11.9784 6.41708 11.9714C6.06083 11.9637 5.37333 11.7695 4.86239 11.6036C4.78701 11.579 4.71347 11.5559 4.64249 11.5335C4.12504 11.3705 3.74423 11.2506 3.7827 10.9465C3.80458 10.7665 4.05302 10.5823 4.52645 10.394Z" fill="white"/>
<defs>
<linearGradient id="paint0_linear_89_626" x1="10" y1="0.5" x2="10" y2="20.5" gradientUnits="userSpaceOnUse">
<stop stop-color="#2AABEE"/>
<stop offset="1" stop-color="#229ED9"/>
</linearGradient>
</defs>
</svg>
