<svg width="12" height="13" viewBox="0 0 12 13" fill="none" xmlns="http://www.w3.org/2000/svg">
<path fill-rule="evenodd" clip-rule="evenodd" d="M4.48477 6.6066L0.646191 2.76802C0.255667 2.3775 0.255668 1.74433 0.646192 1.35381L0.747207 1.25279C1.13773 0.862269 1.7709 0.862269 2.16142 1.25279L6 5.09137L9.83858 1.25279C10.2291 0.862268 10.8623 0.862269 11.2528 1.25279L11.3538 1.35381C11.7443 1.74433 11.7443 2.3775 11.3538 2.76802L7.51523 6.6066L11.3538 10.4452C11.7443 10.8357 11.7443 11.4689 11.3538 11.8594L11.2528 11.9604C10.8623 12.3509 10.2291 12.3509 9.83858 11.9604L6 8.12183L2.16142 11.9604C1.7709 12.3509 1.13773 12.3509 0.747207 11.9604L0.646191 11.8594C0.255667 11.4689 0.255668 10.8357 0.646192 10.4452L4.48477 6.6066Z" fill="white"/>
</svg>
