<svg width="18" height="18" viewBox="0 0 18 18" fill="none" xmlns="http://www.w3.org/2000/svg">
<path fill-rule="evenodd" clip-rule="evenodd" d="M7.46922 1.88976C3.33275 2.94469 0.878907 6.98398 1.98398 10.9093C3.08905 14.8347 7.33608 17.165 11.4725 16.1101C13.0909 15.6974 14.4519 14.828 15.4432 13.6865C12.0451 14.2576 8.69269 12.2743 7.78367 9.04535C6.96662 6.14308 8.38777 3.17298 11.0384 1.78652C9.89316 1.56214 8.67672 1.58181 7.46922 1.88976ZM0.323907 11.3327C-1.02766 6.53174 1.97424 1.59768 7.02441 0.309722C9.20688 -0.246876 11.4168 -0.0312725 13.3303 0.779871C13.7758 0.968718 13.9983 1.43636 13.9027 1.89153L13.8924 1.94093C13.803 2.36669 13.431 2.67862 12.9903 2.79099C10.3154 3.47319 8.7295 6.0849 9.44374 8.62198C10.158 11.1591 12.9034 12.6661 15.5784 11.9839C15.8126 11.9242 16.0381 11.8498 16.2543 11.7621C16.703 11.5802 17.2324 11.6016 17.6065 11.8994C17.9806 12.1973 18.1148 12.6946 17.8915 13.1072C16.7121 15.2863 14.605 17.0047 11.9174 17.6901C6.86719 18.9781 1.67548 16.1337 0.323907 11.3327Z" fill="white"/>
</svg>
