<svg width="20" height="21" viewBox="0 0 20 21" fill="none" xmlns="http://www.w3.org/2000/svg">
<path d="M20 10.931C20 10.092 19.9319 9.47973 19.7846 8.84482H10.2042V12.6316H15.8277C15.7143 13.5727 15.1021 14.9899 13.7415 15.9422L13.7225 16.069L16.7516 18.4156L16.9615 18.4366C18.8889 16.6565 20 14.0375 20 10.931Z" fill="#4285F4"/>
<path d="M10.2045 20.9079C12.9595 20.9079 15.2721 20.0011 16.9615 18.4366L13.7415 15.9422C12.8799 16.5431 11.7237 16.9623 10.2045 16.9623C7.50613 16.9623 5.21592 15.1823 4.39952 12.722L4.27986 12.7322L1.1301 15.1698L1.08891 15.2843C2.76688 18.6176 6.21357 20.9079 10.2045 20.9079Z" fill="#34A853"/>
<path d="M4.39952 12.722C4.18411 12.0871 4.05893 11.4071 4.05893 10.7042C4.05893 10.0012 4.1836 9.32096 4.38768 8.68605L4.38197 8.55083L1.19275 6.07405L1.0884 6.12368C0.396826 7.5069 0 9.06021 0 10.7042C0 12.3482 0.397338 13.9011 1.08891 15.2843L4.39952 12.722Z" fill="#FBBC05"/>
<path d="M10.2045 4.44552C12.1206 4.44552 13.413 5.27317 14.15 5.96482L17.0298 3.15304C15.2612 1.50907 12.9595 0.5 10.2045 0.5C6.21357 0.5 2.76637 2.7904 1.0884 6.12368L4.38768 8.68605C5.21541 6.22576 7.50613 4.44552 10.2045 4.44552Z" fill="#EB4335"/>
</svg>
