<svg width="11" height="11" viewBox="0 0 11 11" fill="none" xmlns="http://www.w3.org/2000/svg">
<path fill-rule="evenodd" clip-rule="evenodd" d="M4.71429 6.28571H0.785715C0.351777 6.28571 0 5.93394 0 5.5C0 5.06606 0.351776 4.71429 0.785715 4.71429H4.71429V0.785715C4.71429 0.351777 5.06606 0 5.5 0C5.93394 0 6.28571 0.351776 6.28571 0.785715V4.71429H10.2143C10.6482 4.71429 11 5.06606 11 5.5C11 5.93394 10.6482 6.28571 10.2143 6.28571H6.28571V10.2143C6.28571 10.6482 5.93394 11 5.5 11C5.06606 11 4.71429 10.6482 4.71429 10.2143V6.28571Z" fill="#131315"/>
</svg>
