<svg width="297" height="297" viewBox="0 0 297 297" fill="none" xmlns="http://www.w3.org/2000/svg">
<g filter="url(#filter0_f_29_392)">
<path d="M148.622 14L158.682 82.2539L188.415 19.9977L177.91 88.1846L224.671 37.4578L194.535 99.519L254.169 64.8289L207.079 115.25L274.29 99.679L214.43 133.98L283.245 138.911L215.934 154.044L280.237 179.04L211.456 173.661L265.535 216.5L201.396 191.086L240.445 247.962L186.646 204.771L207.197 270.631L168.518 213.501L168.743 282.492L148.622 216.5L128.501 282.492L128.727 213.501L90.0482 270.631L110.598 204.771L56.7992 247.962L95.8489 191.086L31.7091 216.5L85.7885 173.661L17.0072 179.04L81.3112 154.044L14 138.911L82.8149 133.98L22.9545 99.679L90.1658 115.25L43.0753 64.8289L102.71 99.519L72.5743 37.4578L119.335 88.1846L108.83 19.9977L138.562 82.2539L148.622 14Z" fill="#53EA63"/>
</g>
<defs>
<filter id="filter0_f_29_392" x="0.3" y="0.3" width="296.645" height="295.892" filterUnits="userSpaceOnUse" color-interpolation-filters="sRGB">
<feFlood flood-opacity="0" result="BackgroundImageFix"/>
<feBlend mode="normal" in="SourceGraphic" in2="BackgroundImageFix" result="shape"/>
<feGaussianBlur stdDeviation="6.85" result="effect1_foregroundBlur_29_392"/>
</filter>
</defs>
</svg>
